<svg width="14" height="12" fill="none" xmlns="http://www.w3.org/2000/svg"><path d="M13.982 3.212a.285.285 0 00-.16-.164l-1.245-.502a1.063 1.063 0 00-.775-.825l-.067-.773a.286.286 0 00-.496-.168l-.32.353-.197-.691a.285.285 0 00-.543-.019L8.705 4.491l-5.464.255A2.862 2.862 0 01.538 3.219a.286.286 0 00-.505.265A3.436 3.436 0 002.27 5.227a2.22 2.22 0 00-.433.845c-.134.485-.183 1.258.311 2.24l-.8 1.088a.285.285 0 00-.051.22l.352 1.911a.286.286 0 00.28.234h.36a.286.286 0 00.28-.337l-.223-1.225L4.708 8.43c.004-.003-.004.003 0 0 .226-.19.39-.399.507-.613 1.23.216 2.914.508 3.993.682l.476 3.024a.286.286 0 00.282.241h.295a.286.286 0 00.286-.285V8.41c.268-.183.364-.49.427-.79l.636-2.932c.119.02.24.03.36.03.837 0 1.603-.489 2-1.277a.286.286 0 00.011-.23z" fill="#fff"/></svg>